<svg width="591" height="605" viewBox="0 0 591 605" fill="none" xmlns="http://www.w3.org/2000/svg">
<path d="M379.984 280.777C365.769 257.12 335.032 249.456 311.374 263.671C287.716 277.886 280.053 308.623 294.268 332.281C308.483 355.939 339.22 363.603 362.878 349.388C386.536 335.173 394.199 304.435 379.984 280.777ZM363.664 290.7C370.102 301.415 366.198 311.227 357.626 316.378C349.055 321.528 345.742 317.568 340.905 315.342C338.743 314.074 335.57 314.231 333.736 315.449C332.364 316.274 331.164 316.411 330.58 315.246L326.408 308.303C325.687 307.103 326.887 305.215 327.83 304.649C333.573 301.198 335.116 300.854 339.833 302.103C344.516 303.489 348.411 307.448 351.463 305.731C353.897 304.152 356.107 300.841 353.497 296.109C352.107 293.212 350.237 292.235 344.457 291.742C342.862 291.417 341.266 290.509 341.419 289.017L342.067 282.328C342.461 281.041 343.523 279.703 345.187 279.753C354.191 280.176 358.514 282.129 363.664 290.7ZM326.411 312.967C328.523 316.482 327.36 321.147 323.845 323.259C320.297 325.508 315.528 324.173 313.554 320.693C311.339 317.007 312.828 312.496 316.12 310.401C319.634 308.29 324.3 309.453 326.411 312.967Z" fill="white"/>
<path d="M484.66 186.271L460.872 138.15C448.455 142.327 434.556 136.795 428.589 124.725L80.2942 296.895C86.2606 308.965 82.2158 323.368 71.3574 330.696L95.1446 378.817C107.561 374.64 121.461 380.172 127.427 392.242C133.394 404.312 129.349 418.715 118.491 426.044L142.278 474.164C154.695 469.988 168.594 475.52 174.561 487.59L522.856 315.419C516.89 303.349 520.935 288.946 531.793 281.617L508.006 233.497C495.589 237.674 481.689 232.141 475.723 220.072C469.757 208.003 473.802 193.599 484.66 186.271Z" fill="#FE8484"/>
<path d="M187.985 447.07L425.76 329.525L358.419 193.304L120.644 310.849L187.985 447.07Z" fill="#DC1D1D"/>
<path d="M381.321 172.815C379.839 171.993 378.583 170.729 377.776 169.095L370.128 153.623C368.016 149.35 369.768 144.175 374.04 142.063C378.313 139.951 383.489 141.703 385.6 145.975L393.248 161.447C395.36 165.719 393.608 170.895 389.336 173.006C386.697 174.311 383.714 174.141 381.321 172.815Z" fill="#DC1D1D"/>
<path d="M444.497 300.618C443.014 299.796 441.759 298.531 440.952 296.898L425.158 264.947C423.046 260.674 424.797 255.498 429.069 253.388C433.342 251.275 438.518 253.027 440.629 257.3L456.423 289.251C458.536 293.523 456.784 298.699 452.512 300.81C449.873 302.113 446.89 301.944 444.497 300.618ZM412.91 236.716C411.427 235.894 410.172 234.629 409.365 232.996L393.571 201.045C391.458 196.772 393.21 191.596 397.482 189.486C401.755 187.374 406.931 189.126 409.042 193.398L424.836 225.349C426.948 229.622 425.197 234.797 420.924 236.909C418.286 238.212 415.303 238.043 412.91 236.716Z" fill="#DC1D1D"/>
<path d="M467.938 348.04C466.456 347.219 465.201 345.953 464.393 344.32L456.745 328.849C454.633 324.576 456.385 319.4 460.657 317.289C464.93 315.176 470.106 316.929 472.217 321.2L479.865 336.672C481.977 340.945 480.225 346.121 475.953 348.232C473.315 349.536 470.331 349.367 467.938 348.04Z" fill="#DC1D1D"/>
<path d="M344.902 277.739C329.87 254.592 298.884 248.006 275.736 263.038C252.589 278.07 246.003 309.056 261.035 332.203C276.067 355.351 307.053 361.937 330.2 346.905C353.348 331.873 359.934 300.887 344.902 277.739ZM328.938 288.226C335.746 298.709 332.187 308.652 323.8 314.098C315.413 319.545 311.965 315.703 307.052 313.647C304.848 312.455 301.682 312.722 299.892 314.004C298.55 314.876 297.355 315.056 296.731 313.911L292.319 307.118C291.557 305.943 292.689 304.016 293.612 303.416C299.231 299.767 300.761 299.37 305.519 300.453C310.247 301.675 314.279 305.496 317.269 303.674C319.646 302.01 321.74 298.624 318.966 293.986C317.475 291.139 315.572 290.228 309.779 289.937C308.173 289.668 306.547 288.816 306.648 287.32L307.062 280.612C307.41 279.313 308.425 277.938 310.09 277.93C319.103 278.039 323.491 279.839 328.938 288.226ZM292.485 311.779C294.718 315.218 293.718 319.921 290.28 322.154C286.812 324.526 282 323.358 279.905 319.949C277.563 316.343 278.894 311.782 282.11 309.574C285.549 307.341 290.252 308.341 292.485 311.779Z" fill="white"/>
<path opacity="0.1" d="M240 454L364.204 205.811L340.104 193.95L347.464 171.949L343.097 169.8L101.664 389.519C110.726 399.477 110.808 414.437 102.39 424.474L138.52 464.174C149.304 456.737 164.191 458.224 173.253 468.181C182.316 478.139 261 454 232 454L240 454Z" fill="black"/>
<path d="M268.134 50.6214L219.973 26.917C212.664 37.7873 198.267 41.858 186.188 35.9125L14.6135 384.503C26.6927 390.449 32.2505 404.339 28.095 416.764L76.2561 440.468C83.5657 429.598 97.9624 425.527 110.042 431.472C122.121 437.418 127.678 451.308 123.523 463.733L171.684 487.437C178.994 476.567 193.39 472.496 205.47 478.442L377.042 129.852C364.962 123.907 359.405 110.016 363.56 97.5914L315.4 73.8872C308.09 84.7575 293.694 88.8282 281.615 82.8826C269.535 76.9349 263.979 63.0461 268.134 50.6214Z" fill="#8EFE84"/>
<path d="M171.584 106.578C170.949 106.431 170.319 106.209 169.708 105.909L154.223 98.2872C149.947 96.1834 148.186 91.0107 150.292 86.7349C152.396 82.4595 157.569 80.698 161.845 82.8038L177.329 90.4254C181.605 92.5293 183.366 97.7019 181.26 101.978C179.459 105.641 175.399 107.459 171.584 106.578Z" fill="#06DA4E"/>
<path d="M299.496 169.533C298.861 169.387 298.231 169.165 297.619 168.864L265.641 153.124C261.365 151.02 259.605 145.848 261.71 141.572C263.814 137.297 268.984 135.534 273.263 137.641L305.241 153.381C309.517 155.485 311.278 160.657 309.172 164.933C307.37 168.598 303.312 170.414 299.496 169.533ZM235.541 138.056C234.905 137.909 234.276 137.687 233.664 137.387L201.686 121.647C197.41 119.543 195.649 114.37 197.755 110.094C199.859 105.818 205.03 104.057 209.308 106.163L241.285 121.903C245.562 124.007 247.322 129.18 245.216 133.456C243.414 137.12 239.356 138.937 235.541 138.056Z" fill="#06DA4E"/>
<path d="M346.958 192.895C346.323 192.748 345.693 192.526 345.081 192.226L329.597 184.604C325.321 182.5 323.56 177.328 325.666 173.052C327.77 168.776 332.944 167.015 337.218 169.121L352.703 176.742C356.979 178.846 358.74 184.019 356.634 188.295C354.831 191.959 350.774 193.776 346.958 192.895Z" fill="#06DA4E"/>
<path d="M188.318 441.998L305.465 204.023L169.13 136.91L51.9834 374.885L188.318 441.998Z" fill="#06DA4E"/>
<path d="M197.079 236.527C172.487 223.997 142.359 233.786 129.829 258.378C117.299 282.97 127.088 313.098 151.68 325.628C176.272 338.158 206.4 328.369 218.93 303.777C231.46 279.185 221.671 249.058 197.079 236.527ZM188.497 253.591C199.635 259.266 201.524 269.656 196.984 278.566C192.444 287.476 187.536 285.873 182.254 286.549C179.749 286.619 177.141 288.433 176.232 290.439C175.505 291.864 174.56 292.618 173.447 291.938L166.23 288.261C164.983 287.625 165 285.389 165.499 284.409C168.541 278.439 169.667 277.33 174.33 275.89C179.035 274.584 184.437 275.877 186.115 272.804C187.343 270.174 187.462 266.195 182.742 263.565C180.026 261.845 177.923 262.008 172.76 264.652C171.235 265.222 169.401 265.298 168.74 263.951L165.745 257.935C165.397 256.636 165.589 254.938 167.026 254.099C174.886 249.686 179.587 249.051 188.497 253.591ZM168.705 292.215C172.358 294.077 173.844 298.65 171.982 302.303C170.165 306.09 165.413 307.485 161.895 305.58C158.064 303.628 156.936 299.013 158.617 295.493C160.479 291.84 165.052 290.354 168.705 292.215Z" fill="white"/>
</svg>
